<svg width="30" height="30" viewBox="0 0 30 30" fill="none" xmlns="http://www.w3.org/2000/svg">
<path d="M14.1667 11.6667H22.5M14.1667 11.6667C14.1667 13.0474 13.0474 14.1667 11.6667 14.1667C10.286 14.1667 9.16667 13.0474 9.16667 11.6667M14.1667 11.6667C14.1667 10.286 13.0474 9.16669 11.6667 9.16669C10.286 9.16669 9.16667 10.286 9.16667 11.6667M9.16667 11.6667H7.5M15.8333 18.3334H7.5M15.8333 18.3334C15.8333 16.9526 16.9526 15.8334 18.3333 15.8334C19.714 15.8334 20.8333 16.9526 20.8333 18.3334M15.8333 18.3334C15.8333 19.7141 16.9526 20.8334 18.3333 20.8334C19.714 20.8334 20.8333 19.7141 20.8333 18.3334M20.8333 18.3334H22.5" stroke="#262729" stroke-width="0.833333" stroke-linecap="round" stroke-linejoin="round"/>
</svg>
