<svg width="30" height="30" viewBox="0 0 30 30" fill="none" xmlns="http://www.w3.org/2000/svg">
<path d="M18.0833 19.6667C18.0833 19.7945 18.016 19.9761 17.7627 20.2008C17.5099 20.4249 17.1155 20.6496 16.5853 20.8484C15.5286 21.2447 14.0352 21.5 12.3611 21.5V22.5C14.1234 22.5 15.7411 22.233 16.9364 21.7847C17.5322 21.5613 18.0491 21.2832 18.4261 20.949C18.8024 20.6154 19.0833 20.1832 19.0833 19.6667H18.0833ZM12.3611 21.5C10.687 21.5 9.1936 21.2447 8.13689 20.8484C7.6067 20.6496 7.21236 20.4249 6.95956 20.2008C6.70618 19.9761 6.63889 19.7945 6.63889 19.6667H5.63889C5.63889 20.1832 5.91981 20.6154 6.29616 20.949C6.67308 21.2832 7.18997 21.5613 7.78577 21.7847C8.98107 22.233 10.5988 22.5 12.3611 22.5V21.5ZM6.63889 19.6667C6.63889 19.5388 6.70618 19.3572 6.95956 19.1326C7.21236 18.9084 7.6067 18.6837 8.13689 18.4849C9.1936 18.0887 10.687 17.8333 12.3611 17.8333V16.8333C10.5988 16.8333 8.98107 17.1004 7.78577 17.5486C7.18997 17.772 6.67308 18.0501 6.29616 18.3843C5.91981 18.718 5.63889 19.1502 5.63889 19.6667H6.63889ZM12.3611 17.8333C14.0352 17.8333 15.5286 18.0887 16.5853 18.4849C17.1155 18.6837 17.5099 18.9084 17.7627 19.1326C18.016 19.3572 18.0833 19.5388 18.0833 19.6667H19.0833C19.0833 19.1502 18.8024 18.718 18.4261 18.3843C18.0491 18.0501 17.5322 17.772 16.9364 17.5486C15.7411 17.1004 14.1234 16.8333 12.3611 16.8333V17.8333ZM14.9722 11.1111C14.9722 12.5532 13.8032 13.7222 12.3611 13.7222V14.7222C14.3555 14.7222 15.9722 13.1055 15.9722 11.1111H14.9722ZM12.3611 13.7222C10.919 13.7222 9.75 12.5532 9.75 11.1111H8.75C8.75 13.1055 10.3667 14.7222 12.3611 14.7222V13.7222ZM9.75 11.1111C9.75 9.66903 10.919 8.5 12.3611 8.5V7.5C10.3667 7.5 8.75 9.11675 8.75 11.1111H9.75ZM12.3611 8.5C13.8032 8.5 14.9722 9.66903 14.9722 11.1111H15.9722C15.9722 9.11675 14.3555 7.5 12.3611 7.5V8.5ZM20.8611 11.5V14H21.8611V11.5H20.8611ZM20.8611 14V16.5H21.8611V14H20.8611ZM18.8611 14.5H21.3611V13.5H18.8611V14.5ZM21.3611 14.5H23.8611V13.5H21.3611V14.5Z" fill="#262729"/>
</svg>
