<svg width="30" height="30" viewBox="0 0 30 30" fill="none" xmlns="http://www.w3.org/2000/svg">
<path fill-rule="evenodd" clip-rule="evenodd" d="M20.8333 13.3333C20.8333 15.6371 17.8506 19.3333 16.1508 21.2526C15.5324 21.951 14.4676 21.951 13.8492 21.2526C12.1494 19.3333 9.16666 15.6371 9.16666 13.3333C9.16666 10.1117 11.7783 7.5 15 7.5C18.2217 7.5 20.8333 10.1117 20.8333 13.3333ZM15 15.8333C16.3807 15.8333 17.5 14.714 17.5 13.3333C17.5 11.9526 16.3807 10.8333 15 10.8333C13.6193 10.8333 12.5 11.9526 12.5 13.3333C12.5 14.714 13.6193 15.8333 15 15.8333Z" stroke="#262729" stroke-linecap="round" stroke-linejoin="round"/>
</svg>
