<svg width="30" height="30" viewBox="0 0 30 30" fill="none" xmlns="http://www.w3.org/2000/svg">
<path d="M18.9491 18.464C19.115 16.1191 17.3915 13.7652 15.1054 13.2148C12.6214 12.6167 9.95314 14.1025 9.1459 16.5294C8.83227 17.4673 8.92047 18.4478 9.38816 19.2833C9.84946 20.1173 10.64 20.7062 11.5978 20.9368L14.5864 21.6563C15.6656 21.9161 16.7121 21.7222 17.54 21.1176C18.368 20.513 18.8663 19.5655 18.9491 18.464Z" fill="#B8B8B8"/>
<path d="M14.5381 12.092C15.5715 12.3408 16.6108 11.7047 16.8596 10.6714C17.1084 9.63807 16.4724 8.5987 15.439 8.34992C14.4057 8.10114 13.3663 8.73715 13.1176 9.77048C12.8688 10.8038 13.5048 11.8432 14.5381 12.092Z" fill="#B8B8B8"/>
<path d="M18.6111 13.863C19.4716 14.0702 20.3372 13.5405 20.5444 12.68C20.7515 11.8195 20.2219 10.9539 19.3614 10.7468C18.5008 10.5396 17.6353 11.0692 17.4281 11.9298C17.2209 12.7903 17.7506 13.6558 18.6111 13.863Z" fill="#B8B8B8"/>
<path d="M20.3168 16.9086C21.0045 17.0742 21.6962 16.6509 21.8618 15.9632C22.0274 15.2755 21.6041 14.5837 20.9164 14.4182C20.2287 14.2526 19.537 14.6759 19.3714 15.3636C19.2058 16.0513 19.6291 16.743 20.3168 16.9086Z" fill="#B8B8B8"/>
<path d="M10.01 13.1097C10.8705 13.3169 11.736 12.7873 11.9432 11.9267C12.1504 11.0662 11.6208 10.2007 10.7602 9.99349C9.8997 9.78631 9.03415 10.316 8.82697 11.1765C8.6198 12.037 9.14944 12.9026 10.01 13.1097Z" fill="#B8B8B8"/>
</svg>
