<svg width="40" height="40" viewBox="0 0 40 40" fill="none" xmlns="http://www.w3.org/2000/svg">
<path fill-rule="evenodd" clip-rule="evenodd" d="M22.2222 11.4574C22.2222 10.6525 21.5697 10 20.7648 10H19.2352C18.4303 10 17.7778 10.6525 17.7778 11.4574V11.7431C17.7778 12.2184 17.4588 12.6314 17.0197 12.8137V12.8137C16.5806 12.996 16.0692 12.9265 15.733 12.5903L15.4256 12.2829C14.7784 11.6357 13.7292 11.6357 13.0821 12.2829L12.2829 13.0821C11.6357 13.7292 11.6357 14.7784 12.2829 15.4256L12.5903 15.733C12.9265 16.0692 12.996 16.5806 12.8137 17.0197V17.0197C12.6314 17.4588 12.2184 17.7778 11.7431 17.7778H11.4574C10.6525 17.7778 10 18.4303 10 19.2352V20.7648C10 21.5697 10.6525 22.2222 11.4574 22.2222H11.9109C12.2867 22.2222 12.6141 22.4733 12.7505 22.8234V22.8234C12.8817 23.1599 12.8192 23.5452 12.5638 23.8005L12.21 24.1543C11.6031 24.7612 11.6031 25.7453 12.21 26.3522L13.2821 27.4242C13.8187 27.9609 14.6888 27.9609 15.2255 27.4242L15.2749 27.3748C15.6927 26.957 16.3332 26.8864 16.8741 27.1241V27.1241C17.3945 27.3528 17.7778 27.8454 17.7778 28.4139V28.5426C17.7778 29.3475 18.4303 30 19.2352 30H20.7648C21.5697 30 22.2222 29.3475 22.2222 28.5426V28.2569C22.2222 27.7816 22.5412 27.3686 22.9803 27.1863V27.1863C23.4194 27.004 23.9308 27.0735 24.267 27.4097L24.3638 27.5065C24.855 27.9977 25.6515 27.9977 26.1427 27.5065L27.5065 26.1427C27.9977 25.6515 27.9977 24.855 27.5065 24.3638L27.4097 24.2671C27.0735 23.9308 27.004 23.4194 27.1863 22.9803V22.9803C27.3686 22.5413 27.7816 22.2222 28.2569 22.2222H28.5426C29.3475 22.2222 30 21.5697 30 20.7648V19.2352C30 18.4303 29.3475 17.7778 28.5426 17.7778H28.4139C27.8454 17.7778 27.3528 17.3945 27.1241 16.8741V16.8741C26.8864 16.3332 26.957 15.6927 27.3748 15.2749L27.4242 15.2255C27.9609 14.6888 27.9609 13.8188 27.4242 13.2821L26.3522 12.21C25.7452 11.6031 24.7612 11.6031 24.1543 12.21L23.8005 12.5638C23.5452 12.8192 23.1599 12.8817 22.8234 12.7505V12.7505C22.4733 12.6141 22.2222 12.2867 22.2222 11.9108V11.4574ZM20 23.3333C21.8409 23.3333 23.3333 21.8409 23.3333 20C23.3333 18.1591 21.8409 16.6667 20 16.6667C18.1591 16.6667 16.6667 18.1591 16.6667 20C16.6667 21.8409 18.1591 23.3333 20 23.3333Z" stroke="#262729" stroke-linejoin="round"/>
</svg>
