<svg width="30" height="30" viewBox="0 0 30 30" fill="none" xmlns="http://www.w3.org/2000/svg">
<path d="M16.0714 8.57143C16.0714 9.16316 15.5917 9.64286 15 9.64286C14.4083 9.64286 13.9286 9.16316 13.9286 8.57143C13.9286 7.97969 14.4083 7.5 15 7.5C15.5917 7.5 16.0714 7.97969 16.0714 8.57143Z" stroke="#262729"/>
<path d="M16.0714 15C16.0714 15.5917 15.5917 16.0714 15 16.0714C14.4083 16.0714 13.9286 15.5917 13.9286 15C13.9286 14.4083 14.4083 13.9286 15 13.9286C15.5917 13.9286 16.0714 14.4083 16.0714 15Z" stroke="#262729"/>
<path d="M16.0714 21.4286C16.0714 22.0203 15.5917 22.5 15 22.5C14.4083 22.5 13.9286 22.0203 13.9286 21.4286C13.9286 20.8368 14.4083 20.3571 15 20.3571C15.5917 20.3571 16.0714 20.8368 16.0714 21.4286Z" stroke="#262729"/>
</svg>
