<svg width="30" height="30" viewBox="0 0 30 30" fill="none" xmlns="http://www.w3.org/2000/svg">
<circle cx="15" cy="15" r="15" fill="#FF9549"/>
<path fill-rule="evenodd" clip-rule="evenodd" d="M13.7555 6.25669C13.907 6.08244 14.1421 6.00587 14.3671 6.05752C17.3745 6.74795 18.8946 10.0435 18.5371 12.9919C18.3981 14.1381 18.0548 15.0366 17.5493 15.7515C17.5462 15.7559 17.5431 15.7602 17.54 15.7646C17.6548 15.7081 17.7608 15.6472 17.8599 15.5829C18.3532 15.2628 18.7152 14.8402 19.1866 14.2901C19.2436 14.2236 19.3022 14.1552 19.3627 14.085C19.4989 13.927 19.7049 13.8474 19.9119 13.8727C20.1188 13.898 20.2996 14.0249 20.3937 14.2109C20.8083 15.0303 21.0417 15.9566 21.0417 16.9355C21.0417 20.2722 18.3367 22.9772 15 22.9772C11.6633 22.9772 8.95833 20.2722 8.95833 16.9355C8.95833 14.8213 10.0448 12.9612 11.6869 11.8825L11.7432 11.8258C11.7721 11.7967 11.8039 11.7704 11.8379 11.7475C12.5595 11.262 13.0776 10.8649 13.4264 10.3978C13.7559 9.95667 13.9583 9.41849 13.9583 8.60219C13.9583 7.99779 13.8467 7.42092 13.6436 6.89006C13.5611 6.67446 13.6041 6.43093 13.7555 6.25669ZM15.1427 7.709C15.1859 8.00065 15.2083 8.29892 15.2083 8.60219C15.2083 9.6592 14.9352 10.4666 14.4279 11.1459C13.9514 11.7838 13.2919 12.2737 12.5872 12.7499L12.527 12.8106C12.4947 12.8431 12.4589 12.872 12.4203 12.8967C11.0887 13.7493 10.2083 15.2398 10.2083 16.9355C10.2083 19.5819 12.3536 21.7272 15 21.7272C17.6464 21.7272 19.7917 19.5819 19.7917 16.9355C19.7917 16.5023 19.7343 16.0831 19.6269 15.6847C19.3101 16.0278 18.9604 16.3589 18.5404 16.6314C17.7711 17.1308 16.8083 17.4158 15.4167 17.4158C15.1315 17.4158 14.8824 17.2227 14.8114 16.9465C14.7403 16.6703 14.8653 16.381 15.1151 16.2434C15.6808 15.9318 16.1603 15.5508 16.5287 15.0298C16.8964 14.5098 17.1781 13.8156 17.2962 12.8414C17.5519 10.7325 16.6791 8.65088 15.1427 7.709Z" fill="white"/>
</svg>
