<svg width="30" height="30" viewBox="0 0 30 30" fill="none" xmlns="http://www.w3.org/2000/svg">
<circle cx="15" cy="15" r="15" fill="#FF9549"/>
<path fill-rule="evenodd" clip-rule="evenodd" d="M18.1858 8.52171C16.0249 8.15943 13.8064 8.15943 11.6455 8.52171C11.2388 8.58988 10.9159 8.90232 10.8348 9.30477C10.0972 12.9664 10.057 16.7343 10.7162 20.4109L10.8525 21.1711L13.9112 18.2652C14.4741 17.7305 15.3572 17.7305 15.9201 18.2652L18.9789 21.1711L19.1151 20.4109C19.7743 16.7343 19.7341 12.9664 18.9965 9.30477C18.9155 8.90232 18.5925 8.58988 18.1858 8.52171ZM11.4388 7.28891C13.7366 6.9037 16.0947 6.9037 18.3925 7.28891C19.3085 7.44248 20.0382 8.14566 20.2219 9.05794C20.9905 12.8737 21.0325 16.8002 20.3455 20.6315L20.161 21.6609C20.006 22.525 18.9527 22.8703 18.3163 22.2657L15.0591 19.1715C14.9787 19.0951 14.8526 19.0951 14.7722 19.1715L11.5151 22.2657C10.8786 22.8703 9.82527 22.525 9.67036 21.6609L9.48579 20.6315C8.79885 16.8002 8.84079 12.8737 9.6094 9.05794C9.79316 8.14566 10.5228 7.44248 11.4388 7.28891Z" fill="white"/>
</svg>
