<svg width="24" height="22" viewBox="0 0 24 22" fill="none" xmlns="http://www.w3.org/2000/svg">
<path d="M3.61586 15.8323L3.61593 15.8314C3.95481 11.847 7.47962 8.60176 11.4719 8.60176C15.1408 8.60176 18.64 11.5639 19.2452 15.1812C19.5187 16.8644 19.1107 18.4353 18.1146 19.6089C17.1164 20.785 15.6467 21.4498 13.9359 21.4498H8.78792C7.28484 21.4498 5.91648 20.8602 4.94751 19.8023L4.94562 19.8002C3.96487 18.7402 3.48585 17.3323 3.61586 15.8323Z" stroke="white" stroke-width="1.1"/>
<path d="M12.7808 3.223C12.7808 4.69926 11.584 5.896 10.1078 5.896C8.63151 5.896 7.43477 4.69926 7.43477 3.223C7.43477 1.74674 8.63151 0.55 10.1078 0.55C11.584 0.55 12.7808 1.74674 12.7808 3.223Z" stroke="white" stroke-width="1.1"/>
<path d="M19.568 5.04924C19.568 6.22781 18.6126 7.18324 17.434 7.18324C16.2554 7.18324 15.3 6.22781 15.3 5.04924C15.3 3.87066 16.2554 2.91523 17.434 2.91523C18.6126 2.91523 19.568 3.87066 19.568 5.04924Z" stroke="white" stroke-width="1.1"/>
<path d="M23 9.87791C23 10.7588 22.2859 11.4729 21.405 11.4729C20.5241 11.4729 19.81 10.7588 19.81 9.87791C19.81 8.99702 20.5241 8.28291 21.405 8.28291C22.2859 8.28291 23 8.99702 23 9.87791Z" stroke="white" stroke-width="1.1"/>
<path d="M5.2682 7.19377C5.2682 8.37234 4.31277 9.32777 3.1342 9.32777C1.95562 9.32777 1.0002 8.37234 1.0002 7.19377C1.0002 6.01519 1.95562 5.05977 3.1342 5.05977C4.31277 5.05977 5.2682 6.01519 5.2682 7.19377Z" stroke="white" stroke-width="1.1"/>
</svg>
