<svg width="18" height="16" viewBox="0 0 18 16" fill="none" xmlns="http://www.w3.org/2000/svg">
<path d="M5.77834 12.4227C4.95384 11.5982 4.44388 10.4591 4.44388 9.20101C4.44388 6.68474 6.48372 4.64489 9 4.64489C11.5163 4.64489 13.5561 6.68474 13.5561 9.20101C13.5561 10.4591 13.0462 11.5982 12.2217 12.4227M3.20101 15C1.71692 13.5159 0.798988 11.4657 0.798988 9.20101C0.798988 4.67172 4.47071 1 9 1C13.5293 1 17.201 4.67172 17.201 9.20101C17.201 11.4657 16.2831 13.5159 14.799 15M9.91122 9.20101C9.91122 9.70426 9.50325 10.1122 9 10.1122C8.49674 10.1122 8.08877 9.70426 8.08877 9.20101C8.08877 8.69776 8.49674 8.28979 9 8.28979C9.50325 8.28979 9.91122 8.69776 9.91122 9.20101Z" stroke="#262729" stroke-linecap="round" stroke-linejoin="round"/>
</svg>
