<svg width="369" height="67" viewBox="0 0 369 67" fill="none" xmlns="http://www.w3.org/2000/svg">
<path fill-rule="evenodd" clip-rule="evenodd" d="M69.6049 55.4706C67.0565 52.4988 61.0555 52.4773 58.4982 55.4413C52.389 62.522 43.3743 67 33.3194 67C14.9176 67 0 52.0015 0 33.5C0 14.9985 14.9176 0 33.3194 0C43.5698 0 52.739 4.65376 58.8511 11.9744C61.3601 14.9796 67.3608 15.056 69.9568 12.1257C76.0025 5.30154 84.8319 1 94.6659 1H336C354.225 1 369 15.7746 369 34C369 52.2254 354.226 67 336 67H94.6659C84.6393 67 75.6572 62.5284 69.6049 55.4706Z" fill="#F5F5F5"/>
</svg>
